<svg width="223" height="33" viewBox="0 0 223 33" fill="none" xmlns="http://www.w3.org/2000/svg">
<path d="M16.5 31.5H31.5V1.5H1.5V15.8182" stroke="#DE2323" stroke-width="3"/>
<path d="M11.5 23.5V8.5L21.5 23.5V8.5" stroke="#DE2323" stroke-width="3"/>
<path d="M58.3379 18.6367L58.1035 2.62598L61.3701 2.86035L61.5459 22.9873L58.3965 23.2363L45.2861 7.57715L45.4766 23.3828L42.415 23.5L42.1367 2.55273L45.2275 2.40625L58.3379 18.6367ZM85.7615 13.1436C85.7615 14.1885 85.6297 15.1943 85.366 16.1611C85.1023 17.1182 84.7264 18.0166 84.2381 18.8564C83.7596 19.6963 83.1834 20.4629 82.5096 21.1562C81.8357 21.8496 81.0838 22.4453 80.2537 22.9434C79.4334 23.4316 78.5496 23.8125 77.6023 24.0859C76.6648 24.3594 75.6883 24.4961 74.6727 24.4961C73.6473 24.4961 72.6609 24.3594 71.7137 24.0859C70.7762 23.8125 69.8973 23.4316 69.077 22.9434C68.2566 22.4453 67.5096 21.8496 66.8357 21.1562C66.1619 20.4629 65.5857 19.6963 65.1072 18.8564C64.6287 18.0166 64.2576 17.1182 63.9939 16.1611C63.7303 15.1943 63.5984 14.1885 63.5984 13.1436C63.5984 12.0986 63.7303 11.0928 63.9939 10.126C64.2576 9.15918 64.6287 8.25586 65.1072 7.41602C65.5857 6.57617 66.1619 5.81445 66.8357 5.13086C67.5096 4.4375 68.2566 3.84668 69.077 3.3584C69.8973 2.86035 70.7811 2.47949 71.7283 2.21582C72.6756 1.94238 73.657 1.80566 74.6727 1.80566C75.6883 1.80566 76.6648 1.94238 77.6023 2.21582C78.5496 2.47949 79.4334 2.86035 80.2537 3.3584C81.0838 3.84668 81.8357 4.4375 82.5096 5.13086C83.1834 5.81445 83.7596 6.57617 84.2381 7.41602C84.7264 8.25586 85.1023 9.15918 85.366 10.126C85.6297 11.0928 85.7615 12.0986 85.7615 13.1436ZM82.8611 13.1436C82.8611 12.3721 82.7635 11.6299 82.5682 10.917C82.3729 10.1943 82.0945 9.52051 81.7332 8.89551C81.3816 8.27051 80.9568 7.7041 80.4588 7.19629C79.9607 6.67871 79.409 6.23926 78.8035 5.87793C78.198 5.50684 77.5438 5.22363 76.8406 5.02832C76.1473 4.82324 75.4246 4.7207 74.6727 4.7207C73.5398 4.7207 72.4803 4.94531 71.4939 5.39453C70.5076 5.83398 69.6434 6.43457 68.9012 7.19629C68.159 7.95801 67.573 8.85156 67.1434 9.87695C66.7234 10.8926 66.5135 11.9814 66.5135 13.1436C66.5135 14.3057 66.7234 15.3994 67.1434 16.4248C67.573 17.4502 68.159 18.3438 68.9012 19.1055C69.6434 19.8672 70.5076 20.4727 71.4939 20.9219C72.4803 21.3613 73.5398 21.5811 74.6727 21.5811C75.4246 21.5811 76.1473 21.4834 76.8406 21.2881C77.5438 21.083 78.198 20.7998 78.8035 20.4385C79.409 20.0674 79.9607 19.6279 80.4588 19.1201C80.9568 18.6025 81.3816 18.0312 81.7332 17.4062C82.0945 16.7812 82.3729 16.1123 82.5682 15.3994C82.7635 14.6768 82.8611 13.9248 82.8611 13.1436ZM108.014 2.40625C106.637 6.09766 105.114 9.73535 103.444 13.3193C101.774 16.8936 99.9869 20.4287 98.0826 23.9248L94.0104 23.8662C90.6607 17.0889 87.858 10.0186 85.6021 2.65527L89.0592 2.14258C89.5279 3.80273 90.0211 5.42383 90.5387 7.00586C91.0563 8.58789 91.608 10.1553 92.1939 11.708C92.7799 13.2607 93.4049 14.8086 94.0689 16.3516C94.7428 17.8945 95.4605 19.4473 96.2223 21.0098C97.8824 18.041 99.4254 14.9648 100.851 11.7812C102.287 8.59766 103.566 5.32617 104.689 1.9668L108.014 2.40625ZM124.393 24.335C124.11 23.3389 123.817 22.3525 123.514 21.376C123.211 20.3896 122.894 19.3984 122.562 18.4023L110.77 18.915C110.409 19.8525 110.062 20.7852 109.73 21.7129C109.398 22.6406 109.076 23.5781 108.763 24.5254L105.438 24.0713C106.815 20.3799 108.338 16.7471 110.008 13.1729C111.688 9.59863 113.475 6.05859 115.37 2.55273L119.471 2.62598C121.151 6.01465 122.684 9.47168 124.071 12.9971C125.457 16.5127 126.717 20.126 127.85 23.8369L124.393 24.335ZM117.113 4.98438C116.126 6.85938 115.194 8.74414 114.315 10.6387C113.436 12.5234 112.596 14.4326 111.795 16.3662L121.698 15.9414C121.034 14.0664 120.321 12.2256 119.559 10.4189C118.797 8.6123 117.982 6.80078 117.113 4.98438ZM144.873 20.043C144.776 20.7266 144.58 21.3369 144.287 21.874C144.004 22.4014 143.648 22.8604 143.218 23.251C142.788 23.6416 142.305 23.9688 141.768 24.2324C141.24 24.5059 140.684 24.7256 140.098 24.8916C139.522 25.0576 138.936 25.1748 138.34 25.2432C137.744 25.3213 137.173 25.3604 136.626 25.3604C135.874 25.3604 135.132 25.2773 134.4 25.1113C133.667 24.9551 132.945 24.7305 132.232 24.4375C131.529 24.1543 130.83 23.8125 130.137 23.4121C129.453 23.0117 128.775 22.5723 128.101 22.0938L130.239 19.5742C131.001 20.248 131.753 20.7803 132.495 21.1709C133.247 21.5518 133.921 21.8398 134.517 22.0352C135.21 22.2695 135.874 22.4258 136.509 22.5039C137.212 22.543 137.866 22.4893 138.472 22.3428C139.077 22.1963 139.605 21.9863 140.054 21.7129C140.513 21.4297 140.879 21.0977 141.153 20.7168C141.426 20.3262 141.587 19.916 141.636 19.4863C141.665 19.125 141.602 18.7979 141.446 18.5049C141.289 18.2021 141.06 17.9287 140.757 17.6846C140.454 17.4307 140.098 17.2109 139.688 17.0254C139.278 16.8301 138.838 16.6592 138.369 16.5127C137.91 16.3564 137.432 16.2246 136.934 16.1172C136.446 16 135.972 15.9023 135.513 15.8242C134.956 15.7266 134.37 15.5996 133.755 15.4434C133.14 15.2773 132.534 15.0625 131.939 14.7988C131.343 14.5352 130.781 14.208 130.254 13.8174C129.727 13.4268 129.268 12.958 128.877 12.4111C128.496 11.8545 128.203 11.21 127.998 10.4775C127.803 9.74512 127.739 8.90527 127.808 7.95801C127.866 7.17676 128.028 6.47363 128.291 5.84863C128.565 5.21387 128.911 4.64746 129.331 4.14941C129.761 3.65137 130.249 3.22656 130.796 2.875C131.353 2.51367 131.944 2.21582 132.569 1.98145C133.194 1.74707 133.838 1.58105 134.502 1.4834C135.176 1.37598 135.845 1.32715 136.509 1.33691C137.427 1.38574 138.35 1.52734 139.278 1.76172C139.668 1.85938 140.078 1.98633 140.508 2.14258C140.947 2.28906 141.387 2.46973 141.826 2.68457C142.266 2.88965 142.7 3.13867 143.13 3.43164C143.56 3.71484 143.97 4.04199 144.361 4.41309L142.72 7.00586C142.407 6.6543 142.075 6.34668 141.724 6.08301C141.372 5.81934 141.016 5.58984 140.654 5.39453C140.303 5.19922 139.951 5.0332 139.6 4.89648C139.248 4.75977 138.916 4.64746 138.604 4.55957C137.852 4.35449 137.114 4.2373 136.392 4.20801C135.503 4.20801 134.712 4.34473 134.019 4.61816C133.325 4.88184 132.739 5.22852 132.261 5.6582C131.792 6.07813 131.431 6.55176 131.177 7.0791C130.933 7.59668 130.811 8.10938 130.811 8.61719C130.811 9.11523 130.957 9.59863 131.25 10.0674C131.553 10.5361 131.968 10.9609 132.495 11.3418C133.023 11.7227 133.643 12.0498 134.356 12.3232C135.069 12.5869 135.835 12.7725 136.655 12.8799C137.368 12.958 138.076 13.085 138.779 13.2607C139.492 13.4365 140.171 13.6611 140.816 13.9346C141.46 14.208 142.051 14.54 142.588 14.9307C143.135 15.3115 143.594 15.7559 143.965 16.2637C144.336 16.7617 144.605 17.3281 144.771 17.9629C144.946 18.5879 144.981 19.2812 144.873 20.043ZM161.691 2.34766L161.633 5.14551L154.792 5.40918L154.997 23.8955L151.76 23.9541V5.52637L144.831 5.80469L144.772 2.71387L161.691 2.34766ZM178.466 24.335C178.182 23.3389 177.889 22.3525 177.587 21.376C177.284 20.3896 176.967 19.3984 176.635 18.4023L164.843 18.915C164.481 19.8525 164.135 20.7852 163.803 21.7129C163.471 22.6406 163.148 23.5781 162.836 24.5254L159.511 24.0713C160.887 20.3799 162.411 16.7471 164.081 13.1729C165.761 9.59863 167.548 6.05859 169.442 2.55273L173.544 2.62598C175.223 6.01465 176.757 9.47168 178.143 12.9971C179.53 16.5127 180.79 20.126 181.923 23.8369L178.466 24.335ZM171.185 4.98438C170.199 6.85938 169.266 8.74414 168.387 10.6387C167.509 12.5234 166.669 14.4326 165.868 16.3662L175.77 15.9414C175.106 14.0664 174.393 12.2256 173.632 10.4189C172.87 8.6123 172.054 6.80078 171.185 4.98438ZM201.832 19.6621C201.334 20.3848 200.757 21.0391 200.103 21.625C199.449 22.2012 198.736 22.6943 197.964 23.1045C197.203 23.5146 196.387 23.832 195.518 24.0566C194.659 24.2812 193.765 24.3936 192.837 24.3936C191.812 24.3936 190.826 24.2568 189.879 23.9834C188.941 23.7197 188.062 23.3438 187.242 22.8555C186.421 22.3574 185.674 21.7666 185.001 21.083C184.327 20.3896 183.751 19.623 183.272 18.7832C182.794 17.9434 182.422 17.04 182.159 16.0732C181.895 15.1064 181.763 14.1006 181.763 13.0557C181.763 12.0107 181.895 11.0049 182.159 10.0381C182.422 9.07129 182.794 8.16797 183.272 7.32812C183.751 6.48828 184.327 5.72656 185.001 5.04297C185.674 4.34961 186.421 3.75879 187.242 3.27051C188.062 2.77246 188.946 2.3916 189.893 2.12793C190.84 1.85449 191.822 1.71777 192.837 1.71777C193.707 1.71777 194.546 1.81543 195.357 2.01074C196.168 2.20605 196.939 2.48437 197.671 2.8457C198.404 3.20703 199.087 3.64648 199.722 4.16406C200.357 4.68164 200.928 5.25781 201.436 5.89258L199.195 7.72363C198.433 6.77637 197.505 6.02441 196.412 5.46777C195.328 4.91113 194.136 4.63281 192.837 4.63281C191.705 4.63281 190.645 4.85742 189.659 5.30664C188.672 5.74609 187.808 6.34668 187.066 7.1084C186.324 7.87012 185.738 8.76367 185.308 9.78906C184.888 10.8047 184.678 11.8936 184.678 13.0557C184.678 14.2178 184.888 15.3115 185.308 16.3369C185.738 17.3623 186.324 18.2559 187.066 19.0176C187.808 19.7793 188.672 20.3848 189.659 20.834C190.645 21.2734 191.705 21.4932 192.837 21.4932C193.521 21.4932 194.18 21.4102 194.815 21.2441C195.45 21.0781 196.046 20.8438 196.602 20.541C197.169 20.2383 197.691 19.8721 198.17 19.4424C198.658 19.0127 199.087 18.5342 199.459 18.0068L201.832 19.6621ZM206.77 15.1064L217.859 2.49414L221.14 2.91895L214.27 10.7559L221.433 23.3828L217.991 23.8955L212.336 12.9385L206.858 19.208L206.975 23.5586L203.708 23.6172L203.371 2.86035L206.462 2.62598L206.77 15.1064Z" fill="#DE2323"/>
<path d="M46.0039 27.2695L45.9922 27.8291L44.624 27.8818L44.665 31.5791L44.0176 31.5908V27.9053L42.6318 27.9609L42.6201 27.3428L46.0039 27.2695ZM52.2175 29.9209L50.4773 30.0059L50.489 30.9229L53.0203 30.7793L53.032 31.3564L49.9382 31.5234L49.8709 27.3486L53.0525 27.2988L53.032 27.8584L50.448 27.8994L50.4656 29.4287L52.2058 29.3584L52.2175 29.9209ZM60.7632 30.7324C60.6636 30.877 60.5484 31.0078 60.4175 31.125C60.2866 31.2402 60.1441 31.3389 59.9898 31.4209C59.8374 31.5029 59.6743 31.5664 59.5005 31.6113C59.3286 31.6562 59.1499 31.6787 58.9644 31.6787C58.7593 31.6787 58.562 31.6514 58.3726 31.5967C58.1851 31.5439 58.0093 31.4688 57.8452 31.3711C57.6812 31.2715 57.5318 31.1533 57.397 31.0166C57.2622 30.8779 57.147 30.7246 57.0513 30.5566C56.9556 30.3887 56.8814 30.208 56.8286 30.0146C56.7759 29.8213 56.7495 29.6201 56.7495 29.4111C56.7495 29.2021 56.7759 29.001 56.8286 28.8076C56.8814 28.6143 56.9556 28.4336 57.0513 28.2656C57.147 28.0977 57.2622 27.9453 57.397 27.8086C57.5318 27.6699 57.6812 27.5518 57.8452 27.4541C58.0093 27.3545 58.1861 27.2783 58.3755 27.2256C58.565 27.1709 58.7612 27.1436 58.9644 27.1436C59.1382 27.1436 59.3062 27.1631 59.4683 27.2021C59.6304 27.2412 59.7847 27.2969 59.9312 27.3691C60.0777 27.4414 60.2144 27.5293 60.3413 27.6328C60.4683 27.7363 60.5825 27.8516 60.6841 27.9785L60.2359 28.3447C60.0835 28.1553 59.898 28.0049 59.6792 27.8936C59.4624 27.7822 59.2241 27.7266 58.9644 27.7266C58.7378 27.7266 58.5259 27.7715 58.3286 27.8613C58.1314 27.9492 57.9585 28.0693 57.8101 28.2217C57.6616 28.374 57.5445 28.5527 57.4585 28.7578C57.3745 28.9609 57.3325 29.1787 57.3325 29.4111C57.3325 29.6436 57.3745 29.8623 57.4585 30.0674C57.5445 30.2725 57.6616 30.4512 57.8101 30.6035C57.9585 30.7559 58.1314 30.877 58.3286 30.9668C58.5259 31.0547 58.7378 31.0986 58.9644 31.0986C59.1011 31.0986 59.2329 31.082 59.3599 31.0488C59.4868 31.0156 59.606 30.9688 59.7173 30.9082C59.8306 30.8477 59.9351 30.7744 60.0308 30.6885C60.1284 30.6025 60.2144 30.5068 60.2886 30.4014L60.7632 30.7324ZM65.3245 29.6279L67.9055 29.502L67.8762 27.3252L68.5296 27.3721L68.5647 31.3975L67.9348 31.4473L67.9173 30.0469L65.3304 30.1611L65.3509 31.4766L64.7386 31.5L64.6829 27.3105L65.3011 27.2812L65.3245 29.6279ZM76.1026 30.5273L76.0557 27.3252L76.709 27.3721L76.7442 31.3975L76.1143 31.4473L73.4922 28.3154L73.5303 31.4766L72.918 31.5L72.8623 27.3105L73.4805 27.2812L76.1026 30.5273ZM85.1873 29.4287C85.1873 29.6377 85.1609 29.8389 85.1082 30.0322C85.0555 30.2236 84.9803 30.4033 84.8826 30.5713C84.7869 30.7393 84.6717 30.8926 84.5369 31.0312C84.4021 31.1699 84.2518 31.2891 84.0857 31.3887C83.9217 31.4863 83.7449 31.5625 83.5555 31.6172C83.368 31.6719 83.1727 31.6992 82.9695 31.6992C82.7645 31.6992 82.5672 31.6719 82.3777 31.6172C82.1902 31.5625 82.0145 31.4863 81.8504 31.3887C81.6863 31.2891 81.5369 31.1699 81.4021 31.0312C81.2674 30.8926 81.1521 30.7393 81.0564 30.5713C80.9607 30.4033 80.8865 30.2236 80.8338 30.0322C80.7811 29.8389 80.7547 29.6377 80.7547 29.4287C80.7547 29.2197 80.7811 29.0186 80.8338 28.8252C80.8865 28.6318 80.9607 28.4512 81.0564 28.2832C81.1521 28.1152 81.2674 27.9629 81.4021 27.8262C81.5369 27.6875 81.6863 27.5693 81.8504 27.4717C82.0145 27.3721 82.1912 27.2959 82.3807 27.2432C82.5701 27.1885 82.7664 27.1611 82.9695 27.1611C83.1727 27.1611 83.368 27.1885 83.5555 27.2432C83.7449 27.2959 83.9217 27.3721 84.0857 27.4717C84.2518 27.5693 84.4021 27.6875 84.5369 27.8262C84.6717 27.9629 84.7869 28.1152 84.8826 28.2832C84.9803 28.4512 85.0555 28.6318 85.1082 28.8252C85.1609 29.0186 85.1873 29.2197 85.1873 29.4287ZM84.6072 29.4287C84.6072 29.2744 84.5877 29.126 84.5486 28.9834C84.5096 28.8389 84.4539 28.7041 84.3816 28.5791C84.3113 28.4541 84.2264 28.3408 84.1268 28.2393C84.0271 28.1357 83.9168 28.0479 83.7957 27.9756C83.6746 27.9014 83.5438 27.8447 83.4031 27.8057C83.2645 27.7646 83.1199 27.7441 82.9695 27.7441C82.743 27.7441 82.5311 27.7891 82.3338 27.8789C82.1365 27.9668 81.9637 28.0869 81.8152 28.2393C81.6668 28.3916 81.5496 28.5703 81.4637 28.7754C81.3797 28.9785 81.3377 29.1963 81.3377 29.4287C81.3377 29.6611 81.3797 29.8799 81.4637 30.085C81.5496 30.29 81.6668 30.4688 81.8152 30.6211C81.9637 30.7734 82.1365 30.8945 82.3338 30.9844C82.5311 31.0723 82.743 31.1162 82.9695 31.1162C83.1199 31.1162 83.2645 31.0967 83.4031 31.0576C83.5438 31.0166 83.6746 30.96 83.7957 30.8877C83.9168 30.8135 84.0271 30.7256 84.1268 30.624C84.2264 30.5205 84.3113 30.4062 84.3816 30.2812C84.4539 30.1562 84.5096 30.0225 84.5486 29.8799C84.5877 29.7354 84.6072 29.585 84.6072 29.4287ZM92.4205 31.5674L89.2271 31.7871L89.2095 27.3311L89.816 27.2988L89.7984 31.1455L92.3912 30.9434L92.4205 31.5674ZM100.404 29.4287C100.404 29.6377 100.377 29.8389 100.325 30.0322C100.272 30.2236 100.197 30.4033 100.099 30.5713C100.003 30.7393 99.888 30.8926 99.7532 31.0312C99.6185 31.1699 99.4681 31.2891 99.3021 31.3887C99.138 31.4863 98.9613 31.5625 98.7718 31.6172C98.5843 31.6719 98.389 31.6992 98.1859 31.6992C97.9808 31.6992 97.7835 31.6719 97.5941 31.6172C97.4066 31.5625 97.2308 31.4863 97.0667 31.3887C96.9027 31.2891 96.7532 31.1699 96.6185 31.0312C96.4837 30.8926 96.3685 30.7393 96.2728 30.5713C96.1771 30.4033 96.1029 30.2236 96.0501 30.0322C95.9974 29.8389 95.971 29.6377 95.971 29.4287C95.971 29.2197 95.9974 29.0186 96.0501 28.8252C96.1029 28.6318 96.1771 28.4512 96.2728 28.2832C96.3685 28.1152 96.4837 27.9629 96.6185 27.8262C96.7532 27.6875 96.9027 27.5693 97.0667 27.4717C97.2308 27.3721 97.4075 27.2959 97.597 27.2432C97.7864 27.1885 97.9827 27.1611 98.1859 27.1611C98.389 27.1611 98.5843 27.1885 98.7718 27.2432C98.9613 27.2959 99.138 27.3721 99.3021 27.4717C99.4681 27.5693 99.6185 27.6875 99.7532 27.8262C99.888 27.9629 100.003 28.1152 100.099 28.2832C100.197 28.4512 100.272 28.6318 100.325 28.8252C100.377 29.0186 100.404 29.2197 100.404 29.4287ZM99.8236 29.4287C99.8236 29.2744 99.804 29.126 99.765 28.9834C99.7259 28.8389 99.6702 28.7041 99.598 28.5791C99.5277 28.4541 99.4427 28.3408 99.3431 28.2393C99.2435 28.1357 99.1331 28.0479 99.012 27.9756C98.8909 27.9014 98.7601 27.8447 98.6195 27.8057C98.4808 27.7646 98.3363 27.7441 98.1859 27.7441C97.9593 27.7441 97.7474 27.7891 97.5501 27.8789C97.3529 27.9668 97.18 28.0869 97.0316 28.2393C96.8831 28.3916 96.7659 28.5703 96.68 28.7754C96.596 28.9785 96.554 29.1963 96.554 29.4287C96.554 29.6611 96.596 29.8799 96.68 30.085C96.7659 30.29 96.8831 30.4688 97.0316 30.6211C97.18 30.7734 97.3529 30.8945 97.5501 30.9844C97.7474 31.0723 97.9593 31.1162 98.1859 31.1162C98.3363 31.1162 98.4808 31.0967 98.6195 31.0576C98.7601 31.0166 98.8909 30.96 99.012 30.8877C99.1331 30.8135 99.2435 30.7256 99.3431 30.624C99.4427 30.5205 99.5277 30.4062 99.598 30.2812C99.6702 30.1562 99.7259 30.0225 99.765 29.8799C99.804 29.7354 99.8236 29.585 99.8236 29.4287ZM108.141 30.7324C108.041 30.877 107.926 31.0078 107.795 31.125C107.664 31.2402 107.522 31.3389 107.367 31.4209C107.215 31.5029 107.052 31.5664 106.878 31.6113C106.706 31.6562 106.527 31.6787 106.342 31.6787C106.137 31.6787 105.94 31.6514 105.75 31.5967C105.563 31.5439 105.387 31.4688 105.223 31.3711C105.059 31.2715 104.909 31.1533 104.774 31.0166C104.64 30.8779 104.524 30.7246 104.429 30.5566C104.333 30.3887 104.259 30.208 104.206 30.0146C104.153 29.8213 104.127 29.6201 104.127 29.4111C104.127 29.2021 104.153 29.001 104.206 28.8076C104.259 28.6143 104.333 28.4336 104.429 28.2656C104.524 28.0977 104.64 27.9453 104.774 27.8086C104.909 27.6699 105.059 27.5518 105.223 27.4541C105.387 27.3545 105.564 27.2783 105.753 27.2256C105.942 27.1709 106.139 27.1436 106.342 27.1436C106.516 27.1436 106.684 27.1631 106.846 27.2021C107.008 27.2412 107.162 27.2969 107.309 27.3691C107.455 27.4414 107.592 27.5293 107.719 27.6328C107.846 27.7363 107.96 27.8516 108.062 27.9785L107.613 28.3447C107.461 28.1553 107.275 28.0049 107.057 27.8936C106.84 27.7822 106.602 27.7266 106.342 27.7266C106.115 27.7266 105.903 27.7715 105.706 27.8613C105.509 27.9492 105.336 28.0693 105.188 28.2217C105.039 28.374 104.922 28.5527 104.836 28.7578C104.752 28.9609 104.71 29.1787 104.71 29.4111C104.71 29.6436 104.752 29.8623 104.836 30.0674C104.922 30.2725 105.039 30.4512 105.188 30.6035C105.336 30.7559 105.509 30.877 105.706 30.9668C105.903 31.0547 106.115 31.0986 106.342 31.0986C106.578 31.0986 106.798 31.0518 107.001 30.958C107.206 30.8623 107.384 30.7314 107.534 30.5654L107.523 29.9414L105.73 30.0117V29.3994L108.094 29.3232L108.141 30.7324ZM112.857 31.3975H112.268L112.166 27.3252L112.819 27.3486L112.857 31.3975ZM119.493 29.9209L117.753 30.0059L117.764 30.9229L120.296 30.7793L120.307 31.3564L117.213 31.5234L117.146 27.3486L120.328 27.2988L120.307 27.8584L117.723 27.8994L117.741 29.4287L119.481 29.3584L119.493 29.9209ZM127.461 30.8086C127.442 30.9453 127.403 31.0674 127.344 31.1748C127.287 31.2803 127.216 31.3721 127.13 31.4502C127.044 31.5283 126.948 31.5938 126.84 31.6465C126.735 31.7012 126.623 31.7451 126.506 31.7783C126.391 31.8115 126.274 31.835 126.155 31.8486C126.036 31.8643 125.921 31.8721 125.812 31.8721C125.661 31.8721 125.513 31.8555 125.367 31.8223C125.22 31.791 125.076 31.7461 124.933 31.6875C124.792 31.6309 124.653 31.5625 124.514 31.4824C124.377 31.4023 124.242 31.3145 124.107 31.2188L124.535 30.7148C124.687 30.8496 124.837 30.9561 124.986 31.0342C125.136 31.1104 125.271 31.168 125.39 31.207C125.529 31.2539 125.661 31.2852 125.788 31.3008C125.929 31.3086 126.06 31.2979 126.181 31.2686C126.302 31.2393 126.408 31.1973 126.497 31.1426C126.589 31.0859 126.662 31.0195 126.717 30.9434C126.772 30.8652 126.804 30.7832 126.814 30.6973C126.82 30.625 126.807 30.5596 126.776 30.501C126.744 30.4404 126.699 30.3857 126.638 30.3369C126.577 30.2861 126.506 30.2422 126.424 30.2051C126.342 30.166 126.254 30.1318 126.161 30.1025C126.069 30.0713 125.973 30.0449 125.873 30.0234C125.776 30 125.681 29.9805 125.589 29.9648C125.478 29.9453 125.361 29.9199 125.238 29.8887C125.115 29.8555 124.994 29.8125 124.874 29.7598C124.755 29.707 124.643 29.6416 124.537 29.5635C124.432 29.4854 124.34 29.3916 124.262 29.2822C124.186 29.1709 124.127 29.042 124.086 28.8955C124.047 28.749 124.035 28.5811 124.048 28.3916C124.06 28.2354 124.092 28.0947 124.145 27.9697C124.2 27.8428 124.269 27.7295 124.353 27.6299C124.439 27.5303 124.536 27.4453 124.646 27.375C124.757 27.3027 124.875 27.2432 125 27.1963C125.125 27.1494 125.254 27.1162 125.387 27.0967C125.522 27.0752 125.656 27.0654 125.788 27.0674C125.972 27.0771 126.157 27.1055 126.342 27.1523C126.42 27.1719 126.502 27.1973 126.588 27.2285C126.676 27.2578 126.764 27.2939 126.852 27.3369C126.94 27.3779 127.027 27.4277 127.113 27.4863C127.199 27.543 127.281 27.6084 127.359 27.6826L127.031 28.2012C126.968 28.1309 126.902 28.0693 126.831 28.0166C126.761 27.9639 126.69 27.918 126.618 27.8789C126.547 27.8398 126.477 27.8066 126.407 27.7793C126.336 27.752 126.27 27.7295 126.207 27.7119C126.057 27.6709 125.91 27.6475 125.765 27.6416C125.587 27.6416 125.429 27.6689 125.29 27.7236C125.152 27.7764 125.035 27.8457 124.939 27.9316C124.845 28.0156 124.773 28.1104 124.722 28.2158C124.673 28.3193 124.649 28.4219 124.649 28.5234C124.649 28.623 124.678 28.7197 124.737 28.8135C124.797 28.9072 124.88 28.9922 124.986 29.0684C125.091 29.1445 125.215 29.21 125.358 29.2646C125.5 29.3174 125.654 29.3545 125.818 29.376C125.96 29.3916 126.102 29.417 126.243 29.4521C126.385 29.4873 126.521 29.5322 126.65 29.5869C126.779 29.6416 126.897 29.708 127.004 29.7861C127.114 29.8623 127.205 29.9512 127.28 30.0527C127.354 30.1523 127.408 30.2656 127.441 30.3926C127.476 30.5176 127.483 30.6562 127.461 30.8086Z" fill="#DE2323"/>
</svg>
